# xmcd
#
# Track frame offsets:
#	150
#	14706
#	27611
#	44694
#	62519
#	78135
#	96409
#	104803
#	127108
#	147704
#	160664
#	176853
#	195162
#
# Disc length: 2921 seconds
# Revision: 0
# Processed by: cddbd v1.5.2PL0 Copyright (c) Steve Scherf et al.
# Submitted via: dBpowerAMP V12.0
#
DISCID=c00b670d
DTITLE=Marionette - Enemies
DYEAR=2009
DGENRE=Metal
TTITLE0=The Swine
TTITLE1=Silver Spoon
TTITLE2=Stench of the Herd
TTITLE3=Anthropomorphism
TTITLE4=Unman
TTITLE5=Hatelust
TTITLE6=The Slaughter
TTITLE7=The Lie
TTITLE8=Your Hands
TTITLE9=Creatures
TTITLE10=Through Veils
TTITLE11=Their Knives
TTITLE12=The Truth
EXTD=
EXTT0=
EXTT1=
EXTT2=
EXTT3=
EXTT4=
EXTT5=
EXTT6=
EXTT7=
EXTT8=
EXTT9=
EXTT10=
EXTT11=
EXTT12=
PLAYORDER=
